<?xml version="1.0" standalone="no"?>
<!DOCTYPE svg PUBLIC "-//W3C//DTD SVG 20010904//EN"
 "http://www.w3.org/TR/2001/REC-SVG-20010904/DTD/svg10.dtd">
<svg version="1.0" xmlns="http://www.w3.org/2000/svg"
 width="126.000000pt" height="126.000000pt" viewBox="0 0 126.000000 126.000000"
 preserveAspectRatio="xMidYMid meet">

<g transform="translate(0.000000,126.000000) scale(0.100000,-0.100000)"
fill="#000000" stroke="none">
<path d="M580 1201 c-75 -23 -125 -71 -149 -140 -6 -19 -11 -88 -11 -155 0
-96 4 -129 19 -161 69 -149 268 -169 364 -37 27 38 32 54 35 118 l4 74 73 0
c80 0 102 12 91 54 -7 28 -30 36 -108 36 -56 0 -58 1 -58 28 -1 116 -145 218
-260 183z m118 -101 c29 -18 62 -71 62 -100 0 -6 -46 -10 -125 -10 -119 0
-125 1 -125 20 0 87 108 138 188 90z m60 -255 c-6 -66 -29 -102 -82 -129 -32
-16 -44 -17 -76 -7 -21 6 -50 25 -64 42 -22 25 -26 41 -26 90 l0 59 126 0 126
0 -4 -55z"/>
<path d="M302 500 c-68 -14 -160 -69 -208 -124 -56 -65 -85 -140 -92 -239 l-5
-77 633 0 632 0 -4 83 c-5 112 -40 188 -119 261 -104 96 -121 100 -484 102
-171 2 -329 -1 -353 -6z m714 -107 c82 -44 164 -164 164 -240 0 -11 -98 -13
-548 -11 l-547 3 3 30 c8 72 73 168 136 203 74 40 82 41 421 39 319 -2 331 -3
371 -24z"/>
</g>
</svg>
